<svg xmlns="http://www.w3.org/2000/svg" xmlns:xlink="http://www.w3.org/1999/xlink" version="1.0" x="0" y="0" width="2400" height="730.4758370699324" viewBox="76.3061067199707 96.48285690307617 187.3877865600586 57.03427093505859" preserveAspectRatio="xMidYMid meet" color-interpolation-filters="sRGB"><g><defs><linearGradient id="92" x1="0%" y1="0%" x2="100%" y2="0%"><stop offset="0%" stop-color="#fa71cd"></stop> <stop offset="100%" stop-color="#9b59b6"></stop></linearGradient><linearGradient id="93" x1="0%" y1="0%" x2="100%" y2="0%"><stop offset="0%" stop-color="#f9d423"></stop> <stop offset="100%" stop-color="#f83600"></stop></linearGradient><linearGradient id="94" x1="0%" y1="0%" x2="100%" y2="0%"><stop offset="0%" stop-color="#0064d2"></stop> <stop offset="100%" stop-color="#1cb0f6"></stop></linearGradient><linearGradient id="95" x1="0%" y1="0%" x2="100%" y2="0%"><stop offset="0%" stop-color="#f00978"></stop> <stop offset="100%" stop-color="#3f51b1"></stop></linearGradient><linearGradient id="96" x1="0%" y1="0%" x2="100%" y2="0%"><stop offset="0%" stop-color="#7873f5"></stop> <stop offset="100%" stop-color="#ec77ab"></stop></linearGradient><linearGradient id="97" x1="0%" y1="0%" x2="100%" y2="0%"><stop offset="0%" stop-color="#f9d423"></stop> <stop offset="100%" stop-color="#e14fad"></stop></linearGradient><linearGradient id="98" x1="0%" y1="0%" x2="100%" y2="0%"><stop offset="0%" stop-color="#009efd"></stop> <stop offset="100%" stop-color="#2af598"></stop></linearGradient><linearGradient id="99" x1="0%" y1="0%" x2="100%" y2="0%"><stop offset="0%" stop-color="#ffcc00"></stop> <stop offset="100%" stop-color="#00b140"></stop></linearGradient><linearGradient id="100" x1="0%" y1="0%" x2="100%" y2="0%"><stop offset="0%" stop-color="#d51007"></stop> <stop offset="100%" stop-color="#ff8177"></stop></linearGradient><linearGradient id="102" x1="0%" y1="0%" x2="100%" y2="0%"><stop offset="0%" stop-color="#a2b6df"></stop> <stop offset="100%" stop-color="#0c3483"></stop></linearGradient><linearGradient id="103" x1="0%" y1="0%" x2="100%" y2="0%"><stop offset="0%" stop-color="#7ac5d8"></stop> <stop offset="100%" stop-color="#eea2a2"></stop></linearGradient><linearGradient id="104" x1="0%" y1="0%" x2="100%" y2="0%"><stop offset="0%" stop-color="#00ecbc"></stop> <stop offset="100%" stop-color="#007adf"></stop></linearGradient><linearGradient id="105" x1="0%" y1="0%" x2="100%" y2="0%"><stop offset="0%" stop-color="#b88746"></stop> <stop offset="100%" stop-color="#fdf5a6"></stop></linearGradient></defs><g fill="#35495e" class="iconlinesvg-g iconlinesvg" transform="translate(78.14759111404419,98.3155403137207)"><g class="tp-name"><g transform="translate(0, 0)"><g fill="#35495e" transform="scale(1)"><path d="M21.13 0.61Q17.12 0.61 13.49-1.06L13.49-1.06Q9.65-2.79 7.36-6.30Q5.07-9.81 5.07-14.61L5.07-14.61L5.07-36.64Q5.07-37.70 5.83-38.48Q6.58-39.26 7.64-39.26L7.64-39.26Q8.70-39.26 9.48-38.48Q10.26-37.70 10.26-36.64L10.26-36.64L10.26-14.44Q10.26-11.04 11.82-8.81L11.82-8.81Q13.27-6.52 15.75-5.33Q18.23-4.13 21.13-4.13L21.13-4.13Q23.98-4.13 26.49-5.30L26.49-5.30Q29.11-6.52 30.56-8.89Q32.01-11.26 32.01-14.44L32.01-14.44L32.01-36.64Q32.01-37.70 32.76-38.48Q33.51-39.26 34.57-39.26L34.57-39.26Q35.63-39.26 36.41-38.48Q37.19-37.70 37.19-36.64L37.19-36.64L37.19-14.61Q37.19-9.70 34.85-6.19L34.85-6.19Q32.57-2.84 28.91-1.12Q25.26 0.61 21.13 0.61L21.13 0.61Z" transform="translate(-5.074349442379183, 40.204460966542754)"></path></g></g><g transform="translate(36, 0)"><g fill="#35495e" transform="scale(1)"><path d="M6.91 13.16Q5.86 13.16 5.10 12.38Q4.35 11.60 4.35 10.54L4.35 10.54L4.35-26.21Q4.35-27.27 5.10-28.02Q5.86-28.77 6.91-28.77L6.91-28.77Q7.97-28.77 8.75-28.02Q9.54-27.27 9.54-26.21L9.54-26.21L9.54-24.87Q13.55-29.05 19.01-29.05L19.01-29.05Q22.64-29.05 25.59-27.32L25.59-27.32Q28.83-25.54 30.70-22.08Q32.57-18.62 32.57-14.22L32.57-14.22Q32.57-9.65 30.67-6.36L30.67-6.36Q28.77-3.01 25.68-1.20Q22.58 0.61 19.01 0.61L19.01 0.61Q13.55 0.61 9.54-3.57L9.54-3.57L9.54 10.54Q9.54 11.65 8.78 12.41Q8.03 13.16 6.91 13.16L6.91 13.16ZM18.29-4.24Q22.53-4.24 24.95-6.89Q27.38-9.54 27.38-14.22L27.38-14.22Q27.38-18.90 24.95-21.55Q22.53-24.20 18.29-24.20L18.29-24.20Q15.84-24.20 13.58-23.09Q11.32-21.97 9.54-20.07L9.54-20.07L9.54-8.36Q11.32-6.47 13.58-5.35Q15.84-4.24 18.29-4.24L18.29-4.24Z" transform="translate(-4.349442379182156, 40.204460966542754)"></path></g></g><g transform="translate(68, 0)"><g fill="#35495e" transform="scale(1)"><path d="M18.12-4.46Q18.96-4.46 19.57-3.85Q20.19-3.23 20.19-2.40L20.19-2.40Q20.19-1.12 18.85-0.39L18.85-0.39Q16.67 0.61 14.22 0.61L14.22 0.61Q6.02 0.61 6.02-6.80L6.02-6.80L6.02-23.75L3.23-23.75Q2.17-23.75 1.59-24.34Q1.00-24.93 1.00-25.99L1.00-25.99Q1.00-27.04 1.59-27.63Q2.17-28.22 3.23-28.22L3.23-28.22L6.02-28.22L6.02-32.17Q6.02-33.46 6.72-34.13Q7.42-34.80 8.64-34.80L8.64-34.80Q9.87-34.80 10.54-34.10Q11.21-33.40 11.21-32.17L11.21-32.17L11.21-28.22L17.45-28.22Q18.40-28.22 19.04-27.57Q19.68-26.93 19.68-25.99L19.68-25.99Q19.68-25.09 19.04-24.42Q18.40-23.75 17.45-23.75L17.45-23.75L11.21-23.75L11.21-7.25Q11.21-5.30 12.10-4.63Q12.99-3.96 14.78-3.96L14.78-3.96Q15.95-3.96 17.01-4.29L17.01-4.29Q17.12-4.29 17.17-4.35L17.17-4.35Q17.73-4.46 18.12-4.46L18.12-4.46Z" transform="translate(-1.003717472118959, 40.204460966542754)"></path></g></g><g transform="translate(91, 0)"><g fill="#35495e" transform="scale(1)"><path d="M6.80-34.18Q5.63-34.18 4.77-35.05Q3.90-35.91 3.90-37.08L3.90-37.08L3.90-37.30Q3.90-38.48 4.77-39.34Q5.63-40.20 6.80-40.20L6.80-40.20L7.14-40.20Q8.31-40.20 9.17-39.34Q10.04-38.48 10.04-37.30L10.04-37.30L10.04-37.08Q10.04-35.91 9.17-35.05Q8.31-34.18 7.14-34.18L7.14-34.18L6.80-34.18ZM6.91 0.33Q5.86 0.33 5.10-0.42Q4.35-1.17 4.35-2.23L4.35-2.23L4.35-26.15Q4.35-27.21 5.10-27.99Q5.86-28.77 6.91-28.77L6.91-28.77Q8.03-28.77 8.78-28.02Q9.54-27.27 9.54-26.15L9.54-26.15L9.54-2.23Q9.54-1.17 8.75-0.42Q7.97 0.33 6.91 0.33L6.91 0.33Z" transform="translate(-3.9033457249070636, 40.204460966542754)"></path></g></g><g transform="translate(101, 8.434689628049341)"><g><g class="imagesvg"><g><rect fill="#35495e" fill-opacity="0" stroke-width="2" x="0" y="0" width="52.318406066711205" height="36.49493301155931" class="image-rect"></rect> <svg x="0" y="0" width="52.318406066711205" height="36.49493301155931" filtersec="colorsb1678308773" class="image-svg-svg primary" style="overflow: visible;"><svg xmlns="http://www.w3.org/2000/svg" viewBox="0.3406992256641388 0.536620020866394 99.40789031982422 69.34228515625"><g transform="matrix(.69 0 0 .69 15.5 15.5)"><g fill="#41b883"><path d="M34.63-19.84a3.354 3.354 0 0 0-5.9-.17l-50.25 93.79c-.6 1.04-.6 2.31 0 3.35a3.33 3.33 0 0 0 2.91 1.67H75.2a3.35 3.35 0 0 0 2.98-4.86L34.63-19.84zM121.69 73.85L84.85.16a3.346 3.346 0 0 0-2.71-1.74c-1.15-.08-2.27.44-2.95 1.37L61.97 23.24l25.59 55.57h31.19c1.18 0 2.28-.62 2.88-1.64.6-1.02.63-2.28.06-3.32z"></path></g></g></svg></svg> </g></g></g></g><g transform="translate(157, 0)"><g fill="#35495e" transform="scale(1)"><path d="M17.12 0.61Q10.26 0.61 6.44-3.29Q2.62-7.19 2.62-14.22L2.62-14.22Q2.62-18.01 4.07-21.52L4.07-21.52Q5.58-25.04 8.64-27.04Q11.71-29.05 16.00-29.05L16.00-29.05Q20.13-29.05 23.20-27.16L23.20-27.16Q26.10-25.26 27.71-22.05Q29.33-18.85 29.33-14.94L29.33-14.94Q29.33-13.88 28.61-13.13Q27.88-12.38 26.71-12.38L26.71-12.38L7.86-12.38Q8.36-8.42 10.85-6.33Q13.33-4.24 17.57-4.24L17.57-4.24Q19.80-4.24 21.55-4.66Q23.31-5.07 25.09-5.97L25.09-5.97Q25.48-6.19 26.10-6.19L26.10-6.19Q26.99-6.19 27.69-5.55Q28.38-4.91 28.38-3.96L28.38-3.96Q28.38-2.68 26.88-1.84L26.88-1.84Q24.54-0.56 22.42 0.03Q20.30 0.61 17.12 0.61L17.12 0.61ZM23.48-16.62Q24.20-16.62 24.14-17.34L24.14-17.34Q23.92-19.57 22.81-21.08L22.81-21.08Q21.58-22.86 19.77-23.75Q17.96-24.65 16.00-24.65L16.00-24.65Q14.22-24.65 12.27-23.81L12.27-23.81Q10.32-22.86 9.17-20.99Q8.03-19.13 7.86-16.62L7.86-16.62L23.48-16.62Z" transform="translate(-2.6208178438661704, 40.204460966542754)"></path></g></g></g> </g><defs v-gra="od"></defs></g></svg>
